# This file uses centimeters as units for non-parametric coordinates.

mtllib FlatheadScrewdriver.mtl
g default
v -0.500000 -2.271699 0.500000
v 0.500000 -2.271699 0.500000
v -0.500000 2.271699 0.500000
v 0.500000 2.271699 0.500000
v -0.500000 2.271699 -0.500000
v 0.500000 2.271699 -0.500000
v -0.500000 -2.271699 -0.500000
v 0.500000 -2.271699 -0.500000
v -0.307449 2.271699 0.500001
v -0.307449 2.271699 -0.500001
v -0.307449 -2.271699 -0.500001
v -0.307449 -2.271699 0.500001
v 0.311637 2.271699 0.500001
v 0.311637 2.271699 -0.500001
v 0.311637 -2.271699 -0.500001
v 0.311637 -2.271699 0.500001
v 0.500000 2.271699 0.308395
v 0.311637 2.509360 0.308395
v -0.307449 2.509360 0.308395
v -0.500000 2.271699 0.308395
v -0.500000 -2.271699 0.308395
v -0.307449 -2.509360 0.308395
v 0.311637 -2.509360 0.308395
v 0.500000 -2.271699 0.308395
v 0.500000 2.271699 -0.312092
v 0.311637 2.509360 -0.312092
v -0.307449 2.509360 -0.312092
v -0.500000 2.271699 -0.312092
v -0.500000 -2.271699 -0.312092
v -0.307449 -2.509360 -0.312092
v 0.311637 -2.509360 -0.312092
v 0.500000 -2.271699 -0.312092
v 0.201640 2.509360 0.308395
v -0.208817 2.509360 0.308395
v 0.201640 2.509360 -0.312093
v -0.208817 2.509360 -0.312093
v -0.307449 -2.509360 0.308395
v 0.311637 -2.509360 0.308395
v -0.307449 -2.509360 -0.312092
v 0.311637 -2.509360 -0.312092
v 0.201640 4.862948 0.308395
v -0.208817 4.862948 0.308395
v 0.201640 4.862948 -0.312093
v -0.208817 4.862948 -0.312093
v 0.060774 5.613227 0.156882
v -0.056586 5.613227 0.156882
v 0.060774 5.613227 -0.160579
v -0.056586 5.613227 -0.160579
vt 0.375000 0.000000
vt 0.625000 0.000000
vt 0.375000 0.250000
vt 0.625000 0.250000
vt 0.375000 0.500000
vt 0.625000 0.500000
vt 0.375000 0.750000
vt 0.625000 0.750000
vt 0.375000 1.000000
vt 0.625000 1.000000
vt 0.875000 0.000000
vt 0.875000 0.250000
vt 0.125000 0.000000
vt 0.125000 0.250000
vt 0.423138 0.250000
vt 0.423138 0.500000
vt 0.423138 0.750000
vt 0.423138 0.000000
vt 0.423138 1.000000
vt 0.577909 0.250000
vt 0.577909 0.500000
vt 0.577909 0.750000
vt 0.577909 0.000000
vt 0.577909 1.000000
vt 0.625000 0.297901
vt 0.672901 0.250000
vt 0.577909 0.297901
vt 0.423138 0.297901
vt 0.327099 0.250000
vt 0.375000 0.297901
vt 0.327099 0.000000
vt 0.375000 0.952099
vt 0.423138 0.952099
vt 0.577909 0.952099
vt 0.625000 0.952099
vt 0.672901 0.000000
vt 0.625000 0.453023
vt 0.828023 0.250000
vt 0.577909 0.453023
vt 0.423138 0.453023
vt 0.171977 0.250000
vt 0.375000 0.453023
vt 0.171977 0.000000
vt 0.375000 0.796977
vt 0.423138 0.796977
vt 0.577909 0.796977
vt 0.625000 0.796977
vt 0.828023 0.000000
vt 0.423138 0.297901
vt 0.577909 0.297901
vt 0.577909 0.453023
vt 0.423138 0.453023
vt 0.577909 0.952099
vt 0.423138 0.952099
vt 0.423138 0.796977
vt 0.577909 0.796977
vt 0.423138 0.297901
vt 0.577909 0.297901
vt 0.577909 0.453023
vt 0.423138 0.453023
vt 0.423138 0.297901
vt 0.577909 0.297901
vt 0.577909 0.453023
vt 0.423138 0.453023
vn -0.000006 0.000000 1.000000
vn -0.000001 0.000000 1.000000
vn -0.000001 0.000000 1.000000
vn -0.000006 0.000000 1.000000
vn -0.464462 0.752607 0.466753
vn -0.098338 0.671672 0.734293
vn -0.465993 0.752611 0.465218
vn -0.732879 0.673190 0.098505
vn -0.000006 0.000000 -1.000000
vn -0.000001 0.000000 -1.000000
vn -0.000001 0.000000 -1.000000
vn -0.000006 0.000000 -1.000000
vn -0.732879 -0.673190 0.098505
vn -0.465993 -0.752611 0.465218
vn -0.098338 -0.671672 0.734293
vn -0.464462 -0.752607 0.466753
vn 1.000000 0.000000 0.000000
vn 1.000000 0.000000 0.000000
vn 1.000000 0.000000 0.000000
vn 1.000000 0.000000 0.000000
vn -1.000000 0.000000 0.000000
vn -1.000000 0.000000 0.000000
vn -1.000000 0.000000 0.000000
vn -1.000000 0.000000 0.000000
vn 0.098724 0.670827 0.735014
vn 0.469309 0.749015 0.467681
vn 0.000001 0.000000 -1.000000
vn 0.000001 0.000000 -1.000000
vn 0.469309 -0.749015 0.467681
vn 0.098724 -0.670827 0.735014
vn 0.000001 0.000000 1.000000
vn 0.000001 0.000000 1.000000
vn 0.472503 0.748984 0.464505
vn 0.740288 0.665206 0.097337
vn 0.000006 0.000000 -1.000000
vn 0.000006 0.000000 -1.000000
vn 0.740288 -0.665206 0.097337
vn 0.472503 -0.748984 0.464505
vn 0.000006 0.000000 1.000000
vn 0.000006 0.000000 1.000000
vn 0.740917 0.664456 -0.097672
vn 0.471501 0.745794 -0.470613
vn 0.000000 1.000000 0.000000
vn 0.000000 1.000000 0.000000
vn 0.000000 1.000000 0.000000
vn 0.000000 1.000000 0.000000
vn -0.468170 0.749444 -0.468135
vn -0.733517 0.672445 -0.098846
vn -1.000000 0.000000 0.000000
vn -1.000000 0.000000 0.000000
vn -0.733517 -0.672445 -0.098846
vn -0.468170 -0.749444 -0.468135
vn 0.000000 -1.000000 0.000000
vn 0.000000 -1.000000 0.000000
vn 0.000000 -1.000000 0.000000
vn 0.000000 -1.000000 0.000000
vn 0.471501 -0.745794 -0.470613
vn 0.740917 -0.664456 -0.097672
vn 1.000000 0.000000 0.000000
vn 1.000000 0.000000 0.000000
vn 0.470490 0.745793 -0.471627
vn 0.097681 0.663739 -0.741558
vn -0.097301 0.664590 -0.740846
vn -0.462465 0.749370 -0.473890
vn -1.000000 0.000000 0.000000
vn -1.000000 0.000000 0.000000
vn -0.462465 -0.749370 -0.473890
vn -0.097301 -0.664590 -0.740846
vn 0.097681 -0.663739 -0.741558
vn 0.470490 -0.745793 -0.471627
vn 1.000000 0.000000 0.000000
vn 1.000000 0.000000 0.000000
vn 0.000000 -0.000000 0.000000
vn 0.000000 -0.000000 0.000000
vn 0.000000 -1.000000 0.000000
vn 0.000000 -1.000000 0.000000
vn 0.000000 1.000000 0.000000
vn 0.000000 1.000000 0.000000
vn 0.000000 1.000000 0.000000
vn 0.000000 1.000000 0.000000
vn 0.000000 -0.000000 -0.000000
vn 0.000000 -0.000000 -0.000000
vn 0.000000 -0.899530 -0.436859
vn 0.000000 -0.899530 -0.436859
vn 0.000000 1.000000 0.000000
vn 0.000000 1.000000 0.000000
vn 0.000000 1.000000 0.000000
vn 0.000000 1.000000 0.000000
vn 0.000000 0.000000 0.000000
vn 0.000000 0.000000 0.000000
vn 0.000000 0.000000 0.000000
vn 0.000000 0.000000 0.000000
vn 0.000000 0.000000 0.000000
vn 0.000000 0.000000 0.000000
vn 0.000000 0.000000 0.000000
vn 0.000000 0.000000 0.000000
vn 0.000000 0.000000 0.000000
vn 0.000000 0.000000 0.000000
vn 0.000000 0.000000 0.000000
vn 0.000000 0.000000 0.000000
vn 0.000000 0.000000 0.000000
vn 0.000000 0.000000 0.000000
vn 0.000000 0.000000 0.000000
vn 0.000000 0.000000 0.000000
vn 0.000000 0.000000 1.000000
vn 0.000000 0.000000 1.000000
vn 0.000000 0.030966 0.999520
vn 0.000000 0.030696 0.999529
vn 1.000000 0.000000 0.000000
vn 1.000000 0.000000 0.000000
vn 0.999466 0.032681 0.000000
vn 0.999466 0.032681 0.000000
vn 0.000000 0.000000 -1.000000
vn 0.000000 0.000000 -1.000000
vn 0.000000 0.030696 -0.999529
vn 0.000000 0.030966 -0.999520
vn -1.000000 0.000000 0.000000
vn -1.000000 0.000000 0.000000
vn -0.999376 0.035326 0.000000
vn -0.999376 0.035326 0.000000
vn 0.000000 0.197947 0.980213
vn 0.000000 0.197947 0.980213
vn 0.982828 0.184527 0.000000
vn 0.982828 0.184527 0.000000
vn 0.000000 0.197947 -0.980213
vn 0.000000 0.197947 -0.980213
vn -0.980031 0.198847 0.000000
vn -0.980031 0.198847 0.000000
s 1
g pCube1
usemtl initialShadingGroup
f 1/1/1 12/18/2 9/15/3 3/3/4
s 2
f 3/3/5 9/15/6 19/28/7 20/30/8
s 3
f 5/5/9 10/16/10 11/17/11 7/7/12
s 4
f 21/32/13 22/33/14 12/19/15 1/9/16
s 5
f 2/2/17 24/36/18 17/26/19 4/4/20
s 6
f 21/31/21 1/1/22 3/3/23 20/29/24
s 2
f 9/15/6 13/20/25 18/27/26 19/28/7
s 3
f 11/17/11 10/16/10 14/21/27 15/22/28
s 4
f 12/19/15 22/33/14 23/34/29 16/24/30
s 1
f 9/15/3 12/18/2 16/23/31 13/20/32
s 2
f 13/20/25 4/4/33 17/25/34 18/27/26
s 3
f 15/22/28 14/21/27 6/6/35 8/8/36
s 4
f 16/24/30 23/34/29 24/35/37 2/10/38
s 1
f 13/20/32 16/23/31 2/2/39 4/4/40
s 2
f 18/27/26 17/25/34 25/37/41 26/39/42
s off
f 46/61/43 45/62/44 47/63/45 48/64/46
s 2
f 20/30/8 19/28/7 27/40/47 28/42/48
s 6
f 29/43/49 21/31/21 20/29/24 28/41/50
s 4
f 29/44/51 30/45/52 22/33/14 21/32/13
s off
f 38/53/53 37/54/54 39/55/55 40/56/56
s 4
f 24/35/37 23/34/29 31/46/57 32/47/58
s 5
f 17/26/19 24/36/18 32/48/59 25/38/60
s 2
f 26/39/42 25/37/41 6/6/61 14/21/62
f 27/40/47 26/39/42 14/21/62 10/16/63
f 28/42/48 27/40/47 10/16/63 5/5/64
s 6
f 7/13/65 29/43/49 28/41/50 5/14/66
s 4
f 7/7/67 11/17/68 30/45/52 29/44/51
f 31/46/57 30/45/52 11/17/68 15/22/69
f 32/47/58 31/46/57 15/22/69 8/8/70
s 5
f 25/38/60 32/48/59 8/11/71 6/12/72
s off
f 19/28/73 18/27/74 33/50/75 34/49/76
f 18/27/77 26/39/78 35/51/79 33/50/80
f 26/39/81 27/40/82 36/52/83 35/51/84
f 27/40/85 19/28/86 34/49/87 36/52/88
f 23/34/89 22/33/90 37/54/91 38/53/92
f 22/33/93 30/45/94 39/55/95 37/54/96
f 30/45/97 31/46/98 40/56/99 39/55/100
f 31/46/101 23/34/102 38/53/103 40/56/104
s 7
f 34/49/105 33/50/106 41/58/107 42/57/108
s 8
f 33/50/109 35/51/110 43/59/111 41/58/112
s 9
f 35/51/113 36/52/114 44/60/115 43/59/116
s 10
f 36/52/117 34/49/118 42/57/119 44/60/120
s 7
f 42/57/108 41/58/107 45/62/121 46/61/122
s 8
f 41/58/112 43/59/111 47/63/123 45/62/124
s 9
f 43/59/116 44/60/115 48/64/125 47/63/126
s 10
f 44/60/120 42/57/119 46/61/127 48/64/128
