# This file uses centimeters as units for non-parametric coordinates.

mtllib WRENCH.mtl
g default
v -4.499612 0.904598 0.500000
v 4.499612 0.904598 0.500000
v -4.499612 1.333451 0.500000
v 4.499612 1.333451 0.500000
v -4.499612 1.333451 -0.500000
v 4.499612 1.333451 -0.500000
v -4.499612 0.904598 -0.500000
v 4.499612 0.904598 -0.500000
v 4.499612 0.904598 -0.500000
v 4.499612 0.904598 0.500000
v 4.499612 1.333451 -0.500000
v 4.499612 1.333451 0.500000
v -4.499612 0.904598 -0.500000
v -4.499612 0.904598 0.500000
v -4.499612 1.333451 0.500000
v -4.499612 1.333451 -0.500000
v 5.599832 0.904598 -0.500000
v 5.599832 0.904598 0.500000
v 5.599832 1.333451 -0.500000
v 5.599832 1.333451 0.500000
v 4.838496 1.333451 -1.378565
v 4.838496 0.904598 -1.378565
v 5.599832 1.333451 -2.235590
v 5.599832 0.904598 -2.235590
v 4.838496 0.904598 1.378565
v 4.838496 1.333451 1.378565
v 5.599832 0.904598 2.235590
v 5.599832 1.333451 2.235590
v 6.921669 1.333451 -0.500000
v 6.921669 0.904598 -0.500000
v 6.350237 0.904598 -2.063181
v 6.350237 1.333451 -2.063181
v 6.921669 0.904598 0.500000
v 6.921669 1.333451 0.500000
v 6.350237 1.333451 2.063181
v 6.350237 0.904598 2.063181
v 6.164893 1.333451 1.143028
v 6.164893 0.904598 1.143028
v 5.962593 0.904598 2.152244
v 5.962593 1.333451 2.152244
v 6.164893 1.333451 -1.143028
v 5.962593 1.333451 -2.152244
v 5.962593 0.904598 -2.152244
v 6.164893 0.904598 -1.143028
v -3.410153 1.333451 0.348499
v -3.410153 1.333451 -0.348499
v -3.410153 0.904598 -0.348499
v -3.410153 0.904598 0.348499
v -3.962013 1.333451 0.890137
v -3.962013 1.333451 -0.890137
v -3.962013 0.904598 -0.890137
v -3.962013 0.904598 0.890137
v -2.638030 1.333451 0.500000
v -2.638030 1.333451 -0.500000
v -2.638030 0.904598 -0.500000
v -2.638030 0.904598 0.500000
vt 0.375000 0.000000
vt 0.625000 0.000000
vt 0.375000 0.250000
vt 0.625000 0.250000
vt 0.375000 0.500000
vt 0.625000 0.500000
vt 0.375000 0.750000
vt 0.625000 0.750000
vt 0.375000 1.000000
vt 0.625000 1.000000
vt 0.875000 0.000000
vt 0.875000 0.250000
vt 0.125000 0.000000
vt 0.125000 0.250000
vt 0.625000 0.000000
vt 0.875000 0.000000
vt 0.875000 0.250000
vt 0.625000 0.250000
vt 0.125000 0.000000
vt 0.375000 0.000000
vt 0.375000 0.250000
vt 0.125000 0.250000
vt 0.625000 0.000000
vt 0.875000 0.000000
vt 0.875000 0.250000
vt 0.625000 0.250000
vt 0.875000 0.000000
vt 0.875000 0.250000
vt 0.875000 0.250000
vt 0.875000 0.000000
vt 0.625000 0.250000
vt 0.625000 0.000000
vt 0.625000 0.000000
vt 0.625000 0.250000
vt 0.875000 0.250000
vt 0.875000 0.000000
vt 0.875000 0.000000
vt 0.875000 0.250000
vt 0.625000 0.000000
vt 0.625000 0.250000
vt 0.625000 0.250000
vt 0.625000 0.000000
vt 0.625000 0.250000
vt 0.625000 0.000000
vt 0.625000 0.000000
vt 0.625000 0.250000
vt 0.875000 0.250000
vt 0.875000 0.250000
vt 0.875000 0.000000
vt 0.875000 0.000000
vt 0.405265 0.250000
vt 0.405265 0.500000
vt 0.405265 0.750000
vt 0.405265 0.000000
vt 0.405265 1.000000
vt 0.389935 0.250000
vt 0.389935 0.500000
vt 0.389935 0.750000
vt 0.389935 0.000000
vt 0.389935 1.000000
vt 0.426715 0.250000
vt 0.426715 0.500000
vt 0.426715 0.750000
vt 0.426715 0.000000
vt 0.426715 1.000000
vn -0.587340 0.000000 0.809340
vn 0.137735 0.000000 0.990469
vn 0.137735 0.000000 0.990469
vn -0.587340 0.000000 0.809340
vn 0.000000 1.000000 0.000000
vn 0.000000 1.000000 0.000000
vn 0.000000 1.000000 0.000000
vn 0.000000 1.000000 0.000000
vn -0.587340 0.000000 -0.809340
vn 0.137735 0.000000 -0.990469
vn 0.137735 0.000000 -0.990469
vn -0.587340 0.000000 -0.809340
vn 0.000000 -1.000000 0.000000
vn 0.000000 -1.000000 0.000000
vn 0.000000 -1.000000 0.000000
vn 0.000000 -1.000000 0.000000
vn 1.000000 0.000000 0.000000
vn 1.000000 0.000000 0.000000
vn 1.000000 0.000000 0.000000
vn 1.000000 0.000000 0.000000
vn -1.000000 0.000000 0.000000
vn -1.000000 0.000000 0.000000
vn -1.000000 0.000000 0.000000
vn -1.000000 0.000000 0.000000
vn 0.000000 0.000000 0.000000
vn 0.000000 0.000000 0.000000
vn 0.000000 0.000000 0.000000
vn 0.000000 0.000000 0.000000
vn 0.000000 0.000000 0.000000
vn 0.000000 0.000000 0.000000
vn 0.000000 0.000000 0.000000
vn 0.000000 0.000000 0.000000
vn 0.000000 0.000000 0.000000
vn 0.000000 0.000000 0.000000
vn 0.000000 0.000000 0.000000
vn 0.000000 0.000000 0.000000
vn 0.000000 0.000000 0.000000
vn 0.000000 0.000000 0.000000
vn 0.000000 0.000000 0.000000
vn 0.000000 0.000000 0.000000
vn 0.000000 0.000000 0.000000
vn 0.000000 0.000000 0.000000
vn 0.000000 0.000000 0.000000
vn 0.000000 0.000000 0.000000
vn 0.000000 0.000000 0.000000
vn 0.000000 0.000000 0.000000
vn 0.000000 0.000000 0.000000
vn 0.000000 0.000000 0.000000
vn 0.000000 0.000000 0.000000
vn 0.000000 0.000000 0.000000
vn 0.000000 0.000000 0.000000
vn 0.000000 0.000000 0.000000
vn 0.000000 0.000000 0.000000
vn 0.000000 0.000000 0.000000
vn 0.000000 0.000000 0.000000
vn 0.000000 0.000000 0.000000
vn 0.000000 -1.000000 0.000000
vn 0.000000 -1.000000 0.000000
vn 0.000000 -1.000000 0.000000
vn 0.000000 -1.000000 0.000000
vn -0.747610 0.000000 -0.664138
vn -0.747610 0.000000 -0.664138
vn -0.566957 0.000000 -0.823747
vn -0.566957 0.000000 -0.823747
vn 0.000000 1.000000 0.000000
vn 0.000000 1.000000 0.000000
vn 0.000000 1.000000 0.000000
vn 0.000000 1.000000 0.000000
vn -0.747610 0.000000 0.664138
vn -0.747610 0.000000 0.664138
vn -0.566957 0.000000 0.823747
vn -0.566957 0.000000 0.823747
vn -0.932999 0.000000 -0.359880
vn -0.932999 0.000000 -0.359880
vn -0.932999 0.000000 -0.359880
vn -0.932999 0.000000 -0.359880
vn 0.000000 1.000000 0.000000
vn 0.000000 1.000000 0.000000
vn 0.000000 1.000000 0.000000
vn 0.000000 1.000000 0.000000
vn 0.939213 0.000000 -0.343336
vn 0.939213 0.000000 -0.343336
vn 0.939213 0.000000 -0.343336
vn 0.939213 0.000000 -0.343336
vn 0.000000 -1.000000 0.000000
vn 0.000000 -1.000000 0.000000
vn 0.000000 -1.000000 0.000000
vn 0.000000 -1.000000 0.000000
vn -0.932999 0.000000 0.359880
vn -0.932999 0.000000 0.359880
vn -0.932999 0.000000 0.359880
vn -0.932999 0.000000 0.359880
vn 0.000000 -1.000000 0.000000
vn 0.000000 -1.000000 0.000000
vn 0.000000 -1.000000 0.000000
vn 0.000000 -1.000000 0.000000
vn 0.939213 0.000000 0.343336
vn 0.939213 0.000000 0.343336
vn 0.939213 0.000000 0.343336
vn 0.939213 0.000000 0.343336
vn 0.000000 1.000000 0.000000
vn 0.000000 1.000000 0.000000
vn 0.000000 1.000000 0.000000
vn 0.000000 1.000000 0.000000
vn 0.751179 0.000000 0.660099
vn 0.751179 0.000000 0.660099
vn -0.000000 0.000000 1.000000
vn -0.000000 0.000000 1.000000
vn 0.000000 -1.000000 -0.000000
vn 0.000000 -1.000000 -0.000000
vn 0.223920 0.000000 -0.974608
vn 0.223920 0.000000 -0.974608
vn 0.000000 1.000000 0.000000
vn 0.000000 1.000000 0.000000
vn 0.751179 0.000000 -0.660099
vn 0.751179 0.000000 -0.660099
vn -0.000000 0.000000 -1.000000
vn -0.000000 0.000000 -1.000000
vn 0.000000 1.000000 0.000000
vn 0.000000 1.000000 0.000000
vn 0.223920 0.000000 0.974608
vn 0.223920 0.000000 0.974608
vn 0.000000 -1.000000 0.000000
vn 0.000000 -1.000000 0.000000
vn -0.647513 0.000000 -0.762055
vn -0.647513 0.000000 -0.762055
vn 0.000000 -1.000000 0.000000
vn 0.000000 -1.000000 0.000000
vn 0.223920 0.000000 0.974608
vn 0.223920 0.000000 0.974608
vn 0.000000 1.000000 0.000000
vn 0.000000 1.000000 0.000000
vn 0.000000 1.000000 0.000000
vn 0.000000 1.000000 0.000000
vn 0.223920 0.000000 -0.974608
vn 0.223920 0.000000 -0.974608
vn 0.000000 -1.000000 -0.000000
vn 0.000000 -1.000000 -0.000000
vn -0.647513 0.000000 0.762055
vn -0.647513 0.000000 0.762055
vn 0.000000 1.000000 0.000000
vn 0.000000 1.000000 0.000000
vn 0.000000 1.000000 0.000000
vn 0.000000 1.000000 0.000000
vn 0.000000 1.000000 0.000000
vn 0.000000 1.000000 0.000000
vn -0.019150 0.000000 -0.999817
vn 0.046058 0.000000 -0.998939
vn 0.046058 0.000000 -0.998939
vn -0.019150 0.000000 -0.999817
vn -0.019150 0.000000 -0.999817
vn -0.019150 0.000000 -0.999817
vn 0.000000 -1.000000 0.000000
vn 0.000000 -1.000000 0.000000
vn 0.000000 -1.000000 0.000000
vn 0.000000 -1.000000 0.000000
vn 0.000000 -1.000000 0.000000
vn 0.000000 -1.000000 0.000000
vn -0.019150 0.000000 0.999817
vn 0.046058 0.000000 0.998939
vn 0.046058 0.000000 0.998939
vn -0.019150 0.000000 0.999817
vn -0.019150 0.000000 0.999817
vn -0.019150 0.000000 0.999817
s 1
g pCube1
usemtl initialShadingGroup
f 1/1/1 52/59/2 49/56/3 3/3/4
s 2
f 3/3/5 49/56/6 50/57/7 5/5/8
s 3
f 5/5/9 50/57/10 51/58/11 7/7/12
s 4
f 7/7/13 51/58/14 52/60/15 1/9/16
s off
f 18/23/17 17/24/18 19/25/19 20/26/20
f 13/19/21 14/20/22 15/21/23 16/22/24
f 2/2/25 8/11/26 9/16/27 10/15/28
f 8/11/29 6/12/30 11/17/31 9/16/32
f 6/12/33 4/4/34 12/18/35 11/17/36
f 4/4/37 2/2/38 10/15/39 12/18/40
f 7/13/41 1/1/42 14/20/43 13/19/44
f 1/1/45 3/3/46 15/21/47 14/20/48
f 3/3/49 5/14/50 16/22/51 15/21/52
f 5/14/53 7/13/54 13/19/55 16/22/56
f 10/15/57 9/16/58 17/24/59 18/23/60
s 5
f 22/27/61 21/28/62 23/29/63 24/30/64
s off
f 11/17/65 12/18/66 20/26/67 19/25/68
s 6
f 26/31/69 25/32/70 27/33/71 28/34/72
s off
f 9/16/73 11/17/74 21/28/75 22/27/76
s 7
f 11/17/77 19/25/78 23/29/79 21/28/80
s off
f 29/35/81 30/36/82 31/37/83 32/38/84
s 8
f 17/24/85 9/16/86 22/27/87 24/30/88
s off
f 12/18/89 10/15/90 25/32/91 26/31/92
s 9
f 10/15/93 18/23/94 27/33/95 25/32/96
s off
f 33/39/97 34/40/98 35/41/99 36/42/100
s 10
f 20/26/101 12/18/102 26/31/103 28/34/104
s 11
f 19/25/105 17/24/106 44/50/107 41/47/108
s 8
f 17/24/85 24/30/88 43/49/109 44/50/110
s 5
f 24/30/64 23/29/63 42/48/111 43/49/112
s 7
f 23/29/79 19/25/78 41/47/113 42/48/114
s 12
f 18/23/115 20/26/116 37/43/117 38/44/118
s 10
f 20/26/101 28/34/104 40/46/119 37/43/120
s 6
f 28/34/72 27/33/71 39/45/121 40/46/122
s 9
f 27/33/95 18/23/94 38/44/123 39/45/124
s 12
f 38/44/118 37/43/117 34/40/125 33/39/126
s 9
f 39/45/124 38/44/123 33/39/127 36/42/128
s 6
f 40/46/122 39/45/121 36/42/129 35/41/130
s 10
f 37/43/120 40/46/119 35/41/131 34/40/132
s 7
f 42/48/114 41/47/113 29/35/133 32/38/134
s 5
f 43/49/112 42/48/111 32/38/135 31/37/136
s 8
f 44/50/110 43/49/109 31/37/137 30/36/138
s 11
f 41/47/108 44/50/107 30/36/139 29/35/140
s 2
f 54/62/141 46/52/142 45/51/143 53/61/144 4/4/145 6/6/146
s 3
f 55/63/147 47/53/148 46/52/149 54/62/150 6/6/151 8/8/152
s 4
f 56/65/153 48/55/154 47/53/155 55/63/156 8/8/157 2/10/158
s 1
f 53/61/159 45/51/160 48/54/161 56/64/162 2/2/163 4/4/164
s 2
f 49/56/6 45/51/143 46/52/142 50/57/7
s 3
f 51/58/11 50/57/10 46/52/149 47/53/148
s 4
f 52/60/15 51/58/14 47/53/155 48/55/154
s 1
f 49/56/3 52/59/2 48/54/161 45/51/160
